<svg xmlns="http://www.w3.org/2000/svg" viewBox="0 0 65.4 49.86"><defs><style>.cls-1{fill:#fff;}</style></defs><g id="Layer_2" data-name="Layer 2"><g id="text"><path class="cls-1" d="M57.64,49.86H2.05a2.05,2.05,0,0,1-2-2V5.6a2.05,2.05,0,0,1,2.05-2H6a.54.54,0,0,1,.54.54v2.7a.31.31,0,0,0,.31.31H9.46a.3.3,0,0,0,.3-.31V4.09a.54.54,0,0,1,.54-.54h8a.54.54,0,0,1,.54.54v2.7a.31.31,0,0,0,.31.31h2.64a.31.31,0,0,0,.31-.31V4.09a.54.54,0,0,1,.54-.54h8a.54.54,0,0,1,.53.54v2.7a.31.31,0,0,0,.31.31H34a.31.31,0,0,0,.31-.31V4.09a.54.54,0,0,1,.54-.54h8a.54.54,0,0,1,.53.54v2.7a.31.31,0,0,0,.31.31h2.65a.31.31,0,0,0,.31-.31V4.09a.54.54,0,0,1,.53-.54h8a.54.54,0,0,1,.54.54v2.7A.31.31,0,0,0,56,7.1h2.64a.31.31,0,0,0,.31-.31V4.09a.54.54,0,0,1,.53-.54h3.93a2,2,0,0,1,2,2.05V41.84a.54.54,0,0,1-.53.54H58.18v6.94A.54.54,0,0,1,57.64,49.86ZM2.05,4.63a1,1,0,0,0-1,1V47.81a1,1,0,0,0,1,1H57.11V41.84a.54.54,0,0,1,.53-.54h6.69V5.6a1,1,0,0,0-1-1H60V6.79a1.38,1.38,0,0,1-1.38,1.38H56a1.38,1.38,0,0,1-1.39-1.38V4.63H47.69V6.79a1.38,1.38,0,0,1-1.38,1.38H43.66a1.38,1.38,0,0,1-1.38-1.38V4.63H35.41V6.79A1.38,1.38,0,0,1,34,8.17H31.38A1.38,1.38,0,0,1,30,6.79V4.63H23.12V6.79a1.38,1.38,0,0,1-1.38,1.38H19.1a1.38,1.38,0,0,1-1.39-1.38V4.63H10.84V6.79A1.38,1.38,0,0,1,9.46,8.17H6.82A1.38,1.38,0,0,1,5.43,6.79V4.63Z"/><path class="cls-1" d="M64.87,14.42H.54a.54.54,0,1,1,0-1.07H64.87a.54.54,0,0,1,0,1.07Z"/><path class="cls-1" d="M9.46,8.17H6.82A1.38,1.38,0,0,1,5.43,6.79V1.38A1.38,1.38,0,0,1,6.82,0H9.46a1.38,1.38,0,0,1,1.38,1.38V6.79A1.38,1.38,0,0,1,9.46,8.17ZM6.82,1.08a.3.3,0,0,0-.31.3V6.79a.31.31,0,0,0,.31.31H9.46a.3.3,0,0,0,.3-.31V1.38a.29.29,0,0,0-.3-.3Z"/><path class="cls-1" d="M21.74,8.17H19.1a1.38,1.38,0,0,1-1.39-1.38V1.38A1.38,1.38,0,0,1,19.1,0h2.64a1.38,1.38,0,0,1,1.38,1.38V6.79A1.38,1.38,0,0,1,21.74,8.17ZM19.1,1.08a.3.3,0,0,0-.31.3V6.79a.31.31,0,0,0,.31.31h2.64a.31.31,0,0,0,.31-.31V1.38a.3.3,0,0,0-.31-.3Z"/><path class="cls-1" d="M34,8.17H31.38A1.38,1.38,0,0,1,30,6.79V1.38A1.38,1.38,0,0,1,31.38,0H34a1.38,1.38,0,0,1,1.39,1.38V6.79A1.38,1.38,0,0,1,34,8.17ZM31.38,1.08a.3.3,0,0,0-.31.3V6.79a.31.31,0,0,0,.31.31H34a.31.31,0,0,0,.31-.31V1.38a.3.3,0,0,0-.31-.3Z"/><path class="cls-1" d="M46.31,8.17H43.66a1.38,1.38,0,0,1-1.38-1.38V1.38A1.38,1.38,0,0,1,43.66,0h2.65a1.38,1.38,0,0,1,1.38,1.38V6.79A1.38,1.38,0,0,1,46.31,8.17ZM43.66,1.08a.3.3,0,0,0-.31.3V6.79a.31.31,0,0,0,.31.31h2.65a.31.31,0,0,0,.31-.31V1.38a.3.3,0,0,0-.31-.3Z"/><path class="cls-1" d="M58.59,8.17H56a1.38,1.38,0,0,1-1.39-1.38V1.38A1.38,1.38,0,0,1,56,0h2.64A1.38,1.38,0,0,1,60,1.38V6.79A1.38,1.38,0,0,1,58.59,8.17ZM56,1.08a.3.3,0,0,0-.31.3V6.79A.31.31,0,0,0,56,7.1h2.64a.31.31,0,0,0,.31-.31V1.38a.3.3,0,0,0-.31-.3Z"/><path class="cls-1" d="M57.78,49.71a.53.53,0,0,1-.37-.15.54.54,0,0,1,0-.76l7.08-7.33a.53.53,0,1,1,.77.74l-7.08,7.34A.54.54,0,0,1,57.78,49.71Z"/><path class="cls-1" d="M17.81,24.22H6.5a.54.54,0,0,1,0-1.07H17.81a.54.54,0,1,1,0,1.07Z"/><path class="cls-1" d="M38.36,24.22H27.05a.54.54,0,1,1,0-1.07H38.36a.54.54,0,0,1,0,1.07Z"/><path class="cls-1" d="M58.9,24.22H47.59a.54.54,0,1,1,0-1.07H58.9a.54.54,0,1,1,0,1.07Z"/><path class="cls-1" d="M17.81,32.14H6.5a.54.54,0,0,1,0-1.07H17.81a.54.54,0,1,1,0,1.07Z"/><path class="cls-1" d="M38.36,32.14H27.05a.54.54,0,1,1,0-1.07H38.36a.54.54,0,0,1,0,1.07Z"/><path class="cls-1" d="M58.9,32.14H47.59a.54.54,0,1,1,0-1.07H58.9a.54.54,0,1,1,0,1.07Z"/><path class="cls-1" d="M17.81,40.05H6.5A.54.54,0,0,1,6.5,39H17.81a.54.54,0,1,1,0,1.07Z"/><path class="cls-1" d="M38.36,40.05H27.05a.54.54,0,1,1,0-1.07H38.36a.54.54,0,0,1,0,1.07Z"/><path class="cls-1" d="M58.9,40.05H47.59a.54.54,0,1,1,0-1.07H58.9a.54.54,0,1,1,0,1.07Z"/></g></g></svg>