<svg xmlns="http://www.w3.org/2000/svg" viewBox="0 0 329.32 52.82"><defs><style>.cls-1{fill:#103659;}</style></defs><g id="Layer_2" data-name="Layer 2"><g id="text"><rect class="cls-1" y="42.97" width="18.77" height="2.44"/><rect class="cls-1" width="18.77" height="2.44"/><path class="cls-1" d="M42.27,36.44V9.05c0-5.38.61-6.28,6.39-6.82V0H27.31V2.21c5.68.51,6.53,1.5,6.53,6.84V21.56H15.69V3.66H3.93V41.75H6.28V6.1H8.63V41.75H11V6.1h2.36V41.75h2.35V23.85H33.84V36.44c0,5.42-.63,6.12-6.53,6.72v2.25H48.66V43.16C43,42.6,42.27,41.81,42.27,36.44Z"/><path class="cls-1" d="M87.56,13.57a28.51,28.51,0,0,1-3.55.32c-1.35.07-2.7.12-4.06.17V11q5.8,0,6.79-.07c2.77-.12,4.49-.38,5.17-.8l.69,2.77c-3.08,1.76-5.14,3.66-6.18,5.72S85,23.37,85.06,27.16a6,6,0,0,0,2.19,4.78,6.79,6.79,0,0,0,4.59,1.56q4.64-.07,6.29-2.25t1.67-7.9q0-.9,0-2-.06-1.35-.86-6.06a24.89,24.89,0,0,0-1.11-4.65l3.33-.52a26.09,26.09,0,0,0,2.76,6.69,13.86,13.86,0,0,0,5.67,5.69l-2.18,3.81A19.22,19.22,0,0,1,102.59,20a55.15,55.15,0,0,1,.73,6.93c0,3.55-1,6.34-3.11,8.35a9.87,9.87,0,0,1-4.06,2,24.39,24.39,0,0,1-4.4.34,11.32,11.32,0,0,1-6.91-2q-3.78-2.67-4-8Q80.53,18.36,87.56,13.57Z"/><path class="cls-1" d="M123.89,20.26a14.25,14.25,0,0,1,3.46-.45,12.66,12.66,0,0,1,7.35,1.67,7.6,7.6,0,0,1,3.43,6.82,8.74,8.74,0,0,1-1.68,5.75A9.49,9.49,0,0,1,132,36.86a15.12,15.12,0,0,1-4,.69c-1.5.07-3,.12-4.47.14a19.36,19.36,0,0,1-3.32-.31,23.12,23.12,0,0,1-4.19-1l0-3.16a24.23,24.23,0,0,0,7.77,1.15,16.89,16.89,0,0,0,6.31-.87q3.33-1.38,3.26-5.48a5.31,5.31,0,0,0-1.61-4.19A7.27,7.27,0,0,0,127,22.62,14.72,14.72,0,0,0,121.1,24a51.15,51.15,0,0,0-7.92,5.23l-2.09-3c2-1.61,5-3.87,8.84-6.75s6.9-5.24,8.84-6.76l-14.07,0V9.83h19.43l.67,2.95-5.45,3.6C127.1,17.86,125.29,19.15,123.89,20.26Z"/><path class="cls-1" d="M154.2,37.35A13.26,13.26,0,0,1,148,35.3c-2.28-1.68-3.42-4.46-3.42-8.31V18.7h-3.9V15.79l4,0V9.1H149v6.48H161.3c0-2.14,0-4.34,0-6.58l4.31,0q.06,3.21,0,6.48h4v2.91h-4q-.09,4.32-.35,6.62a4.51,4.51,0,0,1-4.34,4.36,7.44,7.44,0,0,1-1.08.07,13.82,13.82,0,0,1-5.61-1.28l.38-2.67a14.28,14.28,0,0,0,3.71.59A3.54,3.54,0,0,0,160,25.7c.62-.34,1-1.13,1.08-2.35.08-1,.14-2.6.16-4.82H148.91v8q0,4.13,2,5.93c1.21,1.11,3.2,1.71,6,1.8a41.6,41.6,0,0,0,4.92-.17,24.39,24.39,0,0,0,4.5-.69v3.11a48.9,48.9,0,0,1-10.3.91C155.22,37.42,154.62,37.39,154.2,37.35Z"/><path class="cls-1" d="M180,19.85l-3,3.46a34.91,34.91,0,0,0-5.24-5.85l1.68-2.08a22.37,22.37,0,0,1,3.44,2A20,20,0,0,1,180,19.85Zm.31,5.44a39.1,39.1,0,0,1-2,6.93,30.21,30.21,0,0,1-2.73,5.65l-3.84-2.46a39.11,39.11,0,0,0,5.62-11ZM181,12.4l-3,3.46a37.89,37.89,0,0,0-5.3-5.92l1.75-2a22.28,22.28,0,0,1,3.42,2A21.17,21.17,0,0,1,181,12.4ZM179.5,23.76V21.09h9V15.31H181V12.67h7.51v-5h4.35v5h7.7v2.64h-7.7v5.78h8.71v2.67H190.28a67.57,67.57,0,0,1-4.41,9.53c3.87-.3,7-.66,9.29-1.07q-1.31-2.74-2.66-5.13l2.72-1.39q1.53,1.88,3.33,4.61a37.78,37.78,0,0,1,3.2,5.65l-4.37,1.49c-.23-.69-.55-1.5-.95-2.43a120.17,120.17,0,0,1-16.27,2.53l-.79-3.84,2.79-.14a64.29,64.29,0,0,0,3.46-9.81Z"/><path class="cls-1" d="M213.32,34.85a2.88,2.88,0,0,1-1,2.15,3.42,3.42,0,0,1-2.4.94h-3.55l-.54-3.85h2.76c.57,0,.86-.3.86-.9v-6.1a31.63,31.63,0,0,1-4.35,5.54l-1.65-1.94a31.09,31.09,0,0,0,5.33-9.7h-4.41v-2.6H210a30.31,30.31,0,0,0-4.38-4.09l1.59-1.9a32.65,32.65,0,0,1,3.58,2.18,26.88,26.88,0,0,0,2.76-3.29l-8.47,0V8.72h12.33l1.27,1.63a30.11,30.11,0,0,1-5.74,5.89,14,14,0,0,1,1.34,1.32l-1.05.83H218l1,.76a28.31,28.31,0,0,1-3.58,7.42l-2-1.11Q214,23.9,215,21h-1.64Zm12.05-12c0,1.13,0,2,0,2.66h7c0,5.16-.25,8.36-.73,9.6a3.77,3.77,0,0,1-3.93,2.43H224.1l-.5-3.67h3.07c.85,0,1.37-.8,1.59-2.4q.09-.61.09-3.39h-3.26a11.7,11.7,0,0,1-3,6.34,14.13,14.13,0,0,1-5.73,3.67l-1.4-2.53a11.27,11.27,0,0,0,4.79-3.95,8.84,8.84,0,0,0,1.33-3.53H217V25.56h4.34V23.14c-.57.21-1.22.41-2,.62l-1.11-2.39A20.77,20.77,0,0,0,223.41,19s-.28-.31-.77-.87a12.1,12.1,0,0,1-1.83-2.84,21.88,21.88,0,0,1-2.29,2.5l-1.87-1.7a20.53,20.53,0,0,0,4.41-8.73l3.68.59a17.18,17.18,0,0,1-1.05,2.7h10v2.46h-1.56a13.11,13.11,0,0,1-3,5.34,25.55,25.55,0,0,0,5.2,1.63l-2,3.7A27.85,27.85,0,0,1,226,21a21.79,21.79,0,0,1-4,1.87Zm.54-6.07a10.37,10.37,0,0,0,2.28-3.74H222.9A8.87,8.87,0,0,0,225.91,16.83Z"/><path class="cls-1" d="M235.86,27.85V25.46h12.49V23.52H237.51V21.06h10.84v-1.7h-10V13.12h10V11.46H236.21V9h12.14V7.13h4.32V9h12.61v2.42H252.67v1.66h10.14v6.24H252.67v1.7h11.09v4.4h2v2.39h-2v4.68H252.67v2.53a3,3,0,0,1-1,2.36,4,4,0,0,1-2.62.86h-5l-.44-3.57h3.71a1.07,1.07,0,0,0,.73-.29.9.9,0,0,0,.31-.68V32.53H237.23V30h11.12V27.85Zm12.49-12.68h-6.18v2.15h6.18Zm10.53,2.15V15.17h-6.21v2.15Zm-6.21,8.14h6.91V23.52h-6.91Zm6.91,2.39h-6.91V30h6.91Z"/><path class="cls-1" d="M277.05,34.85a2.89,2.89,0,0,1-1,2.15,3.42,3.42,0,0,1-2.4.94H270.1l-.54-3.85h2.76c.57,0,.86-.3.86-.9v-6.1a31.63,31.63,0,0,1-4.35,5.54l-1.64-1.94a31.29,31.29,0,0,0,5.32-9.7h-4.4v-2.6h5.61a30.31,30.31,0,0,0-4.38-4.09l1.59-1.9a32.65,32.65,0,0,1,3.58,2.18,26.88,26.88,0,0,0,2.76-3.29l-8.47,0V8.72h12.34l1.26,1.63a30.11,30.11,0,0,1-5.74,5.89A12.93,12.93,0,0,1,278,17.56l-1.05.83h4.72l1,.76a28,28,0,0,1-3.58,7.42l-2-1.11q.6-1.56,1.59-4.47h-1.65Zm12-12c0,1.13,0,2,0,2.66h7q0,7.74-.73,9.6-.92,2.43-3.93,2.43h-3.62l-.5-3.67h3.07q1.28,0,1.59-2.4.09-.61.09-3.39h-3.26a11.76,11.76,0,0,1-3,6.34,14.24,14.24,0,0,1-5.74,3.67l-1.4-2.53a11.27,11.27,0,0,0,4.79-3.95,8.69,8.69,0,0,0,1.33-3.53h-4.09V25.56H285V23.14c-.57.21-1.22.41-2,.62L282,21.37A20.77,20.77,0,0,0,287.13,19s-.28-.31-.76-.87a12.11,12.11,0,0,1-1.84-2.84,20.19,20.19,0,0,1-2.29,2.5l-1.87-1.7a20.53,20.53,0,0,0,4.41-8.73l3.68.59a17.18,17.18,0,0,1-1,2.7h10v2.46h-1.56a13.11,13.11,0,0,1-3,5.34,25.55,25.55,0,0,0,5.2,1.63l-2,3.7A27.85,27.85,0,0,1,289.76,21a21.79,21.79,0,0,1-4,1.87Zm.54-6.07a10.37,10.37,0,0,0,2.28-3.74h-5.29A8.87,8.87,0,0,0,289.63,16.83Z"/><path class="cls-1" d="M313.72,25.81h-8.4a30.39,30.39,0,0,1-.63,5.4,18.74,18.74,0,0,1-3.11,7l-2.34-1.6q2-4.15,2-11.54V14.75h12.45Zm-13.4-14V9.21h14.55v2.56Zm9.35,11.51V17.35h-4.22v5.93Zm16.74,14.31h-4.16V21.41h-3v1.21q0,9.49-4.72,15.52l-2.28-2a17.38,17.38,0,0,0,2.44-6.52,51.43,51.43,0,0,0,.57-7.13q0-1.39,0-12.1a38.51,38.51,0,0,0,11.6-2.56l1.72,3.46a31.8,31.8,0,0,1-9.33,1.8l0,5.69h10.05v2.67h-2.91Z"/><path class="cls-1" d="M105.2,52.08a.36.36,0,0,0,.06.22.29.29,0,0,0,.25.09v.15H103.8v-.15a.27.27,0,0,0,.24-.09.36.36,0,0,0,.07-.22v-2.6H99.52v2.6a.36.36,0,0,0,.06.22.29.29,0,0,0,.25.09v.15H98.12v-.15a.27.27,0,0,0,.24-.09.31.31,0,0,0,.07-.22V46.19a.35.35,0,0,0-.07-.23.3.3,0,0,0-.24-.08v-.16h1.71v.16a.32.32,0,0,0-.25.08.41.41,0,0,0-.06.23v2.44h4.59V46.19A.42.42,0,0,0,104,46a.3.3,0,0,0-.24-.08v-.16h1.71v.16a.32.32,0,0,0-.25.08.41.41,0,0,0-.06.23Z"/><path class="cls-1" d="M109.25,52.39a.4.4,0,0,0,.27-.07.52.52,0,0,0,.06-.3V47.36a.46.46,0,0,0-.06-.29.35.35,0,0,0-.27-.08v-.15h1.45V47a.33.33,0,0,0-.26.08.46.46,0,0,0-.06.29V52a.52.52,0,0,0,.06.3.38.38,0,0,0,.26.07v.15h-1.45Z"/><path class="cls-1" d="M115.46,52a.52.52,0,0,0,.06.3.4.4,0,0,0,.27.07v.15h-1.46v-.15a.4.4,0,0,0,.27-.07.52.52,0,0,0,.06-.3V47.36a.46.46,0,0,0-.06-.29.35.35,0,0,0-.27-.08v-.15h4a1.61,1.61,0,0,1,1.25.43,1.64,1.64,0,0,1,.39,1.16,1.51,1.51,0,0,1-.41,1.14,1.78,1.78,0,0,1-1.16.41l1.42,2.17a.54.54,0,0,0,.16.19.29.29,0,0,0,.17,0v.15h-1.4v-.15a.49.49,0,0,0,.17,0s0,0,0-.09a.24.24,0,0,0,0-.13l-.1-.18-1.27-2h-2.05Zm2.76-2.77a.86.86,0,0,0,.66-.21.9.9,0,0,0,.2-.63,1,1,0,0,0-.2-.68,1.07,1.07,0,0,0-.79-.22h-2.63v1.74Z"/><path class="cls-1" d="M126,46.76a3.82,3.82,0,0,1,1.35.23,3.31,3.31,0,0,1,1,.63,2.73,2.73,0,0,1,.66.93,3.06,3.06,0,0,1,0,2.28,2.55,2.55,0,0,1-.66.93,2.93,2.93,0,0,1-1,.61,4.07,4.07,0,0,1-1.35.21,4.13,4.13,0,0,1-1.36-.21,3,3,0,0,1-1-.61,2.65,2.65,0,0,1-.65-.93,2.86,2.86,0,0,1,.65-3.21,3.43,3.43,0,0,1,1-.63A3.88,3.88,0,0,1,126,46.76Zm0,.73a2.71,2.71,0,0,0-1,.17,2.15,2.15,0,0,0-.76.46,2.29,2.29,0,0,0-.48.7,2.42,2.42,0,0,0,0,1.73,2.42,2.42,0,0,0,.48.7,2.33,2.33,0,0,0,.76.47,2.71,2.71,0,0,0,1,.18,2.66,2.66,0,0,0,1-.18,2.33,2.33,0,0,0,.76-.47,2.08,2.08,0,0,0,.48-.7,2.29,2.29,0,0,0,0-1.73,2,2,0,0,0-.48-.7,2.15,2.15,0,0,0-.76-.46A2.66,2.66,0,0,0,126,47.49Z"/><path class="cls-1" d="M132.26,51c0,.08,0,.14,0,.17s.07.15.2.24a2.4,2.4,0,0,0,.53.25,5.7,5.7,0,0,0,.77.2,4.43,4.43,0,0,0,.9.09,3.28,3.28,0,0,0,1.39-.24.76.76,0,0,0,.5-.69.59.59,0,0,0-.34-.58,3,3,0,0,0-.87-.24c-.34,0-.72-.08-1.12-.1a6.43,6.43,0,0,1-1.12-.16,2.11,2.11,0,0,1-.86-.43,1.13,1.13,0,0,1-.34-.9,1.55,1.55,0,0,1,.2-.83,1.58,1.58,0,0,1,.53-.56,2.42,2.42,0,0,1,.79-.31,4.08,4.08,0,0,1,.93-.1,4.8,4.8,0,0,1,.89.07,6.06,6.06,0,0,1,.67.16l.45.17a.93.93,0,0,0,.24.07.18.18,0,0,0,.11,0s.06-.08.1-.15l.17.06-.48,1.27-.16-.06a.14.14,0,0,0,0-.06.28.28,0,0,0,0-.1c0-.07-.06-.14-.18-.22a2,2,0,0,0-.46-.22,5.27,5.27,0,0,0-.66-.17,4.77,4.77,0,0,0-.76-.06,3.1,3.1,0,0,0-.82.08,1.5,1.5,0,0,0-.49.22.87.87,0,0,0-.24.31,1.13,1.13,0,0,0-.06.36A.55.55,0,0,0,133,49a2.76,2.76,0,0,0,.86.22c.35.05.72.08,1.13.1a6.43,6.43,0,0,1,1.12.16,2.23,2.23,0,0,1,.86.42,1.1,1.1,0,0,1,.34.88,1.53,1.53,0,0,1-.66,1.37,4.12,4.12,0,0,1-2.16.43,5.14,5.14,0,0,1-.92-.07,5.83,5.83,0,0,1-.74-.17,4.61,4.61,0,0,1-.53-.18.94.94,0,0,0-.33-.08.18.18,0,0,0-.15.06.46.46,0,0,0-.08.13l-.16-.05.51-1.31Z"/><path class="cls-1" d="M140.6,47.36a.46.46,0,0,0-.06-.29.3.3,0,0,0-.24-.08v-.15h5.23a.4.4,0,0,0,.26-.07.38.38,0,0,0,.06-.24H146v1.35h-.16a.26.26,0,0,0-.32-.32h-4.07v1.69h2.86c.13,0,.22,0,.26-.07a.38.38,0,0,0,.07-.24h.15v1.35h-.15a.36.36,0,0,0-.07-.24s-.13-.07-.26-.07h-2.86v1.84h4.21a.25.25,0,0,0,.32-.31h.16v1.31H146c0-.12,0-.19-.06-.22a.39.39,0,0,0-.26-.06H140.3v-.15a.34.34,0,0,0,.24-.07.52.52,0,0,0,.06-.3Z"/><path class="cls-1" d="M155.85,45.88a.29.29,0,0,0-.25.09.49.49,0,0,0-.06.27v5.45h4.35c.31,0,.46-.13.46-.39h.15v1.49h-.15c0-.17-.15-.25-.46-.25h-5.75v-.15a.27.27,0,0,0,.24-.09.31.31,0,0,0,.07-.22V46.19a.35.35,0,0,0-.07-.23.3.3,0,0,0-.24-.08v-.16h1.71Z"/><path class="cls-1" d="M163.33,47.36a.46.46,0,0,0-.06-.29A.3.3,0,0,0,163,47v-.15h5.23a.37.37,0,0,0,.25-.07.33.33,0,0,0,.07-.24h.15v1.35h-.15a.3.3,0,0,0-.07-.24.32.32,0,0,0-.25-.08h-4.08v1.69h2.87c.13,0,.22,0,.26-.07a.38.38,0,0,0,.06-.24h.16v1.35h-.16a.37.37,0,0,0-.06-.24s-.13-.07-.26-.07h-2.87v1.84h4.22a.4.4,0,0,0,.26-.07.38.38,0,0,0,.06-.24h.16v1.31h-.16c0-.12,0-.19-.06-.22a.41.41,0,0,0-.26-.06H163v-.15a.34.34,0,0,0,.24-.07.52.52,0,0,0,.06-.3Z"/><path class="cls-1" d="M176.93,48.54c0-.07,0-.12,0-.15s0-.11-.15-.21a1.51,1.51,0,0,0-.44-.3,3.09,3.09,0,0,0-.72-.28,4.07,4.07,0,0,0-1-.11,2.5,2.5,0,0,0-1,.17,2.15,2.15,0,0,0-1.25,1.21,2.32,2.32,0,0,0-.18.92,2.07,2.07,0,0,0,.16.82,1.93,1.93,0,0,0,.48.66,2.42,2.42,0,0,0,.81.46,3.49,3.49,0,0,0,1.13.17,4.14,4.14,0,0,0,.45,0l.52-.09a4.13,4.13,0,0,0,.5-.15,1.27,1.27,0,0,0,.38-.22v-.78h-1.18a.32.32,0,0,0-.25.08.3.3,0,0,0-.07.24H175V49.69h.15a.18.18,0,0,0,.07.15.38.38,0,0,0,.25.06h2.22v.15a.24.24,0,0,0-.14.08.22.22,0,0,0,0,.16v.87a.21.21,0,0,0,.18.22v.13a3,3,0,0,1-.67.51,4.75,4.75,0,0,1-.77.34,3.84,3.84,0,0,1-.8.18,6.85,6.85,0,0,1-.77,0,5.08,5.08,0,0,1-1.32-.17,2.93,2.93,0,0,1-1.05-.55,2.69,2.69,0,0,1-.69-.93,3,3,0,0,1-.26-1.26,2.57,2.57,0,0,1,.23-1,2.78,2.78,0,0,1,.63-.94,3.28,3.28,0,0,1,1-.67,3.65,3.65,0,0,1,1.41-.26,4.35,4.35,0,0,1,1,.11,5.13,5.13,0,0,1,.78.25,4.77,4.77,0,0,1,.54.25.72.72,0,0,0,.26.12.11.11,0,0,0,.1,0l0-.05.16.06-.5,1.14Z"/><path class="cls-1" d="M179.84,52.39c.14,0,.24,0,.28-.09a.89.89,0,0,0,.14-.24l2.05-4.69a.73.73,0,0,0,.06-.22.15.15,0,0,0-.07-.12.6.6,0,0,0-.25-.06v-.13h2.1V47a.65.65,0,0,0-.2,0,.12.12,0,0,0-.1.12.31.31,0,0,0,0,.13l.06.13,2.22,4.72a.38.38,0,0,0,.12.17.35.35,0,0,0,.28.09v.15h-1.63v-.15a1,1,0,0,0,.31,0,.14.14,0,0,0,.08-.12.33.33,0,0,0,0-.15,1.12,1.12,0,0,1,0-.13l-.53-1.09h-3.15l-.44,1-.12.22a.51.51,0,0,0-.05.17.13.13,0,0,0,.07.12.88.88,0,0,0,.28,0v.15h-1.46Zm2-2.26h2.53l-1.31-2.72Z"/><path class="cls-1" d="M194.52,52.79c0-.1,0-.16-.06-.19a.41.41,0,0,0-.26-.06H189v-.15a.37.37,0,0,0,.26-.07.52.52,0,0,0,.06-.3V47.36a.46.46,0,0,0-.06-.29A.32.32,0,0,0,189,47v-.15h1.45V47a.35.35,0,0,0-.27.08.57.57,0,0,0-.05.29v4.46h4.07a.31.31,0,0,0,.26-.09.52.52,0,0,0,.06-.3h.16v1.36Z"/><path class="cls-1" d="M202.68,50.49a.41.41,0,0,0,0,.17.53.53,0,0,0,.22.38,2.38,2.38,0,0,0,.6.36,5.55,5.55,0,0,0,.84.26,4.24,4.24,0,0,0,.94.11A3.39,3.39,0,0,0,207,51.4a1.09,1.09,0,0,0,.55-.93.73.73,0,0,0-.14-.45.78.78,0,0,0-.38-.28,2.11,2.11,0,0,0-.55-.14,5,5,0,0,0-.68,0h-1.27a4.68,4.68,0,0,1-1.22-.16,2.07,2.07,0,0,1-.92-.54,1.71,1.71,0,0,1-.11-2,2.35,2.35,0,0,1,.71-.65,4.12,4.12,0,0,1,1.06-.43,5.44,5.44,0,0,1,1.32-.15,5.39,5.39,0,0,1,1,.07c.28.06.51.11.71.17l.49.17a1,1,0,0,0,.33.08.41.41,0,0,0,.21,0l.12-.12.16.06-.71,1.5-.15-.09a.59.59,0,0,0,0-.17c0-.06,0-.14-.16-.22a1.89,1.89,0,0,0-.44-.26,3.45,3.45,0,0,0-.68-.2,3.85,3.85,0,0,0-.86-.09,3.43,3.43,0,0,0-1.67.34,1,1,0,0,0-.61.88.58.58,0,0,0,.13.4,1.07,1.07,0,0,0,.38.23,2.14,2.14,0,0,0,.56.11c.21,0,.43,0,.68,0h1.27a4.33,4.33,0,0,1,1.22.21,2.1,2.1,0,0,1,.92.58,1.72,1.72,0,0,1,.36,1.18,1.65,1.65,0,0,1-.21.8,2.19,2.19,0,0,1-.65.68,3.17,3.17,0,0,1-1.05.46,6.51,6.51,0,0,1-2.67.06,4.66,4.66,0,0,1-.88-.26l-.6-.27a.87.87,0,0,0-.37-.12.38.38,0,0,0-.27.15l-.13-.07.7-1.5Z"/><path class="cls-1" d="M212,47.36a.46.46,0,0,0-.06-.29.3.3,0,0,0-.24-.08v-.15H217a.27.27,0,0,0,.33-.31h.15v1.35h-.15a.34.34,0,0,0-.07-.24.33.33,0,0,0-.26-.08h-4.07v1.69h2.87a.35.35,0,0,0,.26-.07.38.38,0,0,0,.06-.24h.16v1.35h-.16a.37.37,0,0,0-.06-.24.35.35,0,0,0-.26-.07h-2.87v1.84h4.22a.37.37,0,0,0,.25-.07.33.33,0,0,0,.07-.24h.15v1.31h-.15c0-.12,0-.19-.07-.22a.38.38,0,0,0-.25-.06h-5.37v-.15a.34.34,0,0,0,.24-.07A.52.52,0,0,0,212,52Z"/><path class="cls-1" d="M221.76,52a.52.52,0,0,0,.06.3.38.38,0,0,0,.26.07v.15h-1.45v-.15a.4.4,0,0,0,.27-.07A.52.52,0,0,0,221,52V47.36a.46.46,0,0,0-.06-.29.35.35,0,0,0-.27-.08v-.15h4a1.58,1.58,0,0,1,1.24.43,1.64,1.64,0,0,1,.39,1.16,1.48,1.48,0,0,1-.41,1.14,1.76,1.76,0,0,1-1.16.41l1.43,2.17a.54.54,0,0,0,.16.19.25.25,0,0,0,.16,0v.15H225v-.15a.53.53,0,0,0,.18,0s0,0,0-.09a.24.24,0,0,0,0-.13l-.1-.18-1.27-2h-2.05Zm2.76-2.77a.87.87,0,0,0,.66-.21.9.9,0,0,0,.2-.63,1,1,0,0,0-.2-.68,1.07,1.07,0,0,0-.79-.22h-2.63v1.74Z"/><path class="cls-1" d="M230.07,46.84V47a.46.46,0,0,0-.21,0,.2.2,0,0,0-.09.18.37.37,0,0,0,0,.16.82.82,0,0,1,.09.19l1.85,3.93,1.68-4a.58.58,0,0,0,.05-.14.39.39,0,0,0,0-.13c0-.13-.1-.2-.29-.2v-.15h1.33V47c-.12,0-.2.07-.26.21l-2,4.71s0,.09-.06.15a.37.37,0,0,0,0,.16c0,.12.09.18.28.17v.15H231v-.15c.16,0,.23,0,.23-.12a.45.45,0,0,0-.05-.2c0-.08-.08-.19-.14-.32l-2.1-4.5a.49.49,0,0,0-.15-.19.43.43,0,0,0-.24-.07v-.15Z"/><path class="cls-1" d="M237.19,52.39a.37.37,0,0,0,.26-.07.52.52,0,0,0,.06-.3V47.36a.46.46,0,0,0-.06-.29.32.32,0,0,0-.26-.08v-.15h1.45V47a.35.35,0,0,0-.27.08.57.57,0,0,0-.05.29V52a.64.64,0,0,0,.05.3.4.4,0,0,0,.27.07v.15h-1.45Z"/><path class="cls-1" d="M246.77,48.45a.31.31,0,0,0,0-.11v-.11c0-.06,0-.12-.17-.21a2.48,2.48,0,0,0-.44-.24,5,5,0,0,0-.62-.21,2.74,2.74,0,0,0-.7-.08,2.87,2.87,0,0,0-1,.17,2.41,2.41,0,0,0-.75.48,2,2,0,0,0-.47.71,2.22,2.22,0,0,0-.16.85,2.15,2.15,0,0,0,.16.85,1.83,1.83,0,0,0,.46.66,2.36,2.36,0,0,0,.73.45,2.63,2.63,0,0,0,.91.16,3.6,3.6,0,0,0,.91-.11,2.94,2.94,0,0,0,.66-.25,1.69,1.69,0,0,0,.42-.3c.09-.1.14-.17.14-.22a.67.67,0,0,0-.05-.26l.13-.08.91,1.19-.15.11a.53.53,0,0,0-.15-.1.18.18,0,0,0-.09,0,.61.61,0,0,0-.32.13,4.86,4.86,0,0,1-.53.28,3.79,3.79,0,0,1-.77.28,4.63,4.63,0,0,1-1.07.11,4.4,4.4,0,0,1-1.23-.17,2.75,2.75,0,0,1-1-.55,2.57,2.57,0,0,1-.67-.91,2.91,2.91,0,0,1-.25-1.25,3,3,0,0,1,.25-1.24,2.65,2.65,0,0,1,.7-.92,3.19,3.19,0,0,1,1-.58,3.9,3.9,0,0,1,1.25-.2,4.78,4.78,0,0,1,.92.07,4.66,4.66,0,0,1,.75.2l.43.17a.73.73,0,0,0,.26.08c.06,0,.13-.05.2-.14l.16,0-.64,1.33Z"/><path class="cls-1" d="M250.75,47.36a.46.46,0,0,0-.06-.29.3.3,0,0,0-.24-.08v-.15h5.23a.37.37,0,0,0,.25-.07.33.33,0,0,0,.07-.24h.15v1.35H256a.3.3,0,0,0-.07-.24.32.32,0,0,0-.25-.08H251.6v1.69h2.87c.13,0,.22,0,.26-.07a.38.38,0,0,0,.06-.24H255v1.35h-.16a.37.37,0,0,0-.06-.24s-.13-.07-.26-.07H251.6v1.84h4.22a.4.4,0,0,0,.26-.07.38.38,0,0,0,.06-.24h.16v1.31h-.16c0-.12,0-.19-.06-.22a.41.41,0,0,0-.26-.06h-5.37v-.15a.34.34,0,0,0,.24-.07.52.52,0,0,0,.06-.3Z"/><path class="cls-1" d="M267.75,45.65a5.09,5.09,0,0,1,1.55.22,3.47,3.47,0,0,1,1.24.68,3.17,3.17,0,0,1,.82,1.09,4,4,0,0,1,0,3,3,3,0,0,1-.82,1.09,3.29,3.29,0,0,1-1.24.66,5.86,5.86,0,0,1-3.11,0,3.29,3.29,0,0,1-1.24-.66,3,3,0,0,1-.82-1.09,4,4,0,0,1,0-3,3.17,3.17,0,0,1,.82-1.09,3.47,3.47,0,0,1,1.24-.68A5.11,5.11,0,0,1,267.75,45.65Zm0,.88a2.84,2.84,0,0,0-2.05.69,2.88,2.88,0,0,0,0,3.81,3.34,3.34,0,0,0,4.09,0,2.88,2.88,0,0,0,0-3.81A2.83,2.83,0,0,0,267.75,46.53Z"/><path class="cls-1" d="M279.91,47.88a.34.34,0,0,0-.07-.24.33.33,0,0,0-.26-.08h-3.81V49.3h2.55c.13,0,.22,0,.26-.07a.28.28,0,0,0,.07-.21h.15v1.27h-.15a.26.26,0,0,0-.07-.2.39.39,0,0,0-.26-.06h-2.55v2a.52.52,0,0,0,.06.3.47.47,0,0,0,.29.07v.15h-1.5v-.15a.43.43,0,0,0,.28-.07A.5.5,0,0,0,275,52V47.36a.46.46,0,0,0-.06-.29.35.35,0,0,0-.27-.08v-.15h4.94a.27.27,0,0,0,.33-.31h.15v1.35Z"/><path class="cls-1" d="M288.09,47.88a.34.34,0,0,0-.07-.24.33.33,0,0,0-.26-.08H284V49.3h2.55c.13,0,.22,0,.26-.07a.28.28,0,0,0,.07-.21H287v1.27h-.15a.26.26,0,0,0-.07-.2.39.39,0,0,0-.26-.06H284v2a.44.44,0,0,0,.07.3.41.41,0,0,0,.28.07v.15h-1.5v-.15a.43.43,0,0,0,.28-.07.5.5,0,0,0,.07-.3V47.36a.46.46,0,0,0-.06-.29.35.35,0,0,0-.27-.08v-.15h4.94a.27.27,0,0,0,.33-.31h.15v1.35Z"/><path class="cls-1" d="M291.18,52.39a.4.4,0,0,0,.27-.07.52.52,0,0,0,.06-.3V47.36a.46.46,0,0,0-.06-.29.35.35,0,0,0-.27-.08v-.15h1.46V47a.35.35,0,0,0-.27.08.46.46,0,0,0-.06.29V52a.52.52,0,0,0,.06.3.4.4,0,0,0,.27.07v.15h-1.46Z"/><path class="cls-1" d="M300.76,48.45a.45.45,0,0,0,0-.11v-.11c0-.06-.05-.12-.17-.21a2.29,2.29,0,0,0-.45-.24,4.08,4.08,0,0,0-.62-.21,2.71,2.71,0,0,0-.69-.08,2.87,2.87,0,0,0-1,.17,2.41,2.41,0,0,0-.75.48,1.88,1.88,0,0,0-.47.71,2.22,2.22,0,0,0-.17.85,2.15,2.15,0,0,0,.17.85,1.71,1.71,0,0,0,.46.66,2.43,2.43,0,0,0,.72.45,2.73,2.73,0,0,0,.92.16,3.46,3.46,0,0,0,.9-.11,2.86,2.86,0,0,0,.67-.25,1.9,1.9,0,0,0,.42-.3c.09-.1.14-.17.14-.22a.67.67,0,0,0-.05-.26l.13-.08.9,1.19-.14.11a.53.53,0,0,0-.15-.1.18.18,0,0,0-.09,0,.61.61,0,0,0-.32.13c-.14.08-.31.18-.53.28a3.79,3.79,0,0,1-.77.28,4.7,4.7,0,0,1-1.07.11,4.53,4.53,0,0,1-1.24-.17,2.71,2.71,0,0,1-1-.55,2.59,2.59,0,0,1-.68-.91,3.06,3.06,0,0,1-.24-1.25,2.89,2.89,0,0,1,.25-1.24,2.75,2.75,0,0,1,.69-.92,3.35,3.35,0,0,1,1-.58,3.88,3.88,0,0,1,1.24-.2,4.65,4.65,0,0,1,.92.07,4.5,4.5,0,0,1,.76.2l.42.17a.79.79,0,0,0,.26.08.29.29,0,0,0,.21-.14l.16,0-.64,1.33Z"/><path class="cls-1" d="M304.75,47.36a.46.46,0,0,0-.06-.29.3.3,0,0,0-.24-.08v-.15h5.22a.27.27,0,0,0,.33-.31h.15v1.35H310a.34.34,0,0,0-.07-.24.33.33,0,0,0-.26-.08H305.6v1.69h2.87a.35.35,0,0,0,.26-.07.38.38,0,0,0,.06-.24H309v1.35h-.16a.37.37,0,0,0-.06-.24.35.35,0,0,0-.26-.07H305.6v1.84h4.21a.38.38,0,0,0,.26-.07.33.33,0,0,0,.07-.24h.15v1.31h-.15c0-.12,0-.19-.07-.22a.39.39,0,0,0-.26-.06h-5.36v-.15a.34.34,0,0,0,.24-.07.52.52,0,0,0,.06-.3Z"/></g></g></svg>