<svg xmlns="http://www.w3.org/2000/svg" viewBox="0 0 228.08 51.3"><defs><style>.cls-1{font-size:21.07px;font-family:FutoMinA101Pr6N-Bold-83pv-RKSJ-H, A-OTF Futo Min A101 Pr6N;}.cls-1,.cls-2{fill:#fff;}</style></defs><g id="Layer_2" data-name="Layer 2"><g id="text"><text class="cls-1" transform="translate(80.61 31.31)">電話でのご予約</text><path class="cls-2" d="M54,51.3H2.62A2.62,2.62,0,0,1,0,48.68V5.74A2.63,2.63,0,0,1,2.62,3.12H8a.47.47,0,0,1,.46.47v36a2.66,2.66,0,0,0,2.66,2.66h7.91a2.66,2.66,0,0,0,2.65-2.66v-36a.47.47,0,0,1,.47-.47H54a2.63,2.63,0,0,1,2.63,2.62V48.68A2.62,2.62,0,0,1,54,51.3ZM2.62,4.05A1.69,1.69,0,0,0,.93,5.74V48.68a1.7,1.7,0,0,0,1.69,1.7H54a1.7,1.7,0,0,0,1.7-1.7V5.74A1.7,1.7,0,0,0,54,4.05H22.64V39.62a3.59,3.59,0,0,1-3.58,3.59H11.15a3.59,3.59,0,0,1-3.59-3.59V4.05Z"/><path class="cls-2" d="M19.06,43.21H11.15a3.59,3.59,0,0,1-3.59-3.59v-36A3.59,3.59,0,0,1,11.15,0h7.91a3.59,3.59,0,0,1,3.58,3.59v36A3.59,3.59,0,0,1,19.06,43.21ZM11.15.93A2.66,2.66,0,0,0,8.49,3.59v36a2.66,2.66,0,0,0,2.66,2.66h7.91a2.66,2.66,0,0,0,2.65-2.66v-36A2.66,2.66,0,0,0,19.06.93Z"/><path class="cls-2" d="M50.75,16.33H28.33a.46.46,0,0,1-.47-.46V8.43A.47.47,0,0,1,28.33,8H50.75a.47.47,0,0,1,.47.46v7.44A.46.46,0,0,1,50.75,16.33Zm-22-.92h21.5V8.9H28.79Z"/><path class="cls-2" d="M31.77,22.9H28.33a.47.47,0,0,1-.47-.47V18.78a.47.47,0,0,1,.47-.47h3.44a.47.47,0,0,1,.47.47v3.65A.47.47,0,0,1,31.77,22.9Zm-3-.93h2.52V19.24H28.79Z"/><path class="cls-2" d="M38,22.9H34.56a.47.47,0,0,1-.47-.47V18.78a.47.47,0,0,1,.47-.47H38a.47.47,0,0,1,.47.47v3.65A.47.47,0,0,1,38,22.9ZM35,22h2.52V19.24H35Z"/><path class="cls-2" d="M44.24,22.9H40.79a.47.47,0,0,1-.47-.47V18.78a.47.47,0,0,1,.47-.47h3.45a.47.47,0,0,1,.46.47v3.65A.47.47,0,0,1,44.24,22.9Zm-3-.93h2.52V19.24H41.25Z"/><path class="cls-2" d="M50.47,22.9H47a.47.47,0,0,1-.47-.47V18.78a.47.47,0,0,1,.47-.47h3.45a.47.47,0,0,1,.46.47v3.65A.47.47,0,0,1,50.47,22.9Zm-3-.93H50V19.24H47.48Z"/><path class="cls-2" d="M31.77,28.71H28.33a.47.47,0,0,1-.47-.46V24.59a.46.46,0,0,1,.47-.46h3.44a.46.46,0,0,1,.47.46v3.66A.47.47,0,0,1,31.77,28.71Zm-3-.93h2.52V25.06H28.79Z"/><path class="cls-2" d="M38,28.71H34.56a.47.47,0,0,1-.47-.46V24.59a.46.46,0,0,1,.47-.46H38a.46.46,0,0,1,.47.46v3.66A.47.47,0,0,1,38,28.71Zm-3-.93h2.52V25.06H35Z"/><path class="cls-2" d="M44.24,28.71H40.79a.47.47,0,0,1-.47-.46V24.59a.46.46,0,0,1,.47-.46h3.45a.46.46,0,0,1,.46.46v3.66A.47.47,0,0,1,44.24,28.71Zm-3-.93h2.52V25.06H41.25Z"/><path class="cls-2" d="M50.47,28.71H47a.47.47,0,0,1-.47-.46V24.59a.46.46,0,0,1,.47-.46h3.45a.46.46,0,0,1,.46.46v3.66A.47.47,0,0,1,50.47,28.71Zm-3-.93H50V25.06H47.48Z"/><path class="cls-2" d="M31.77,34.53H28.33a.46.46,0,0,1-.47-.46V30.41a.47.47,0,0,1,.47-.46h3.44a.47.47,0,0,1,.47.46v3.66A.46.46,0,0,1,31.77,34.53Zm-3-.92h2.52V30.88H28.79Z"/><path class="cls-2" d="M38,34.53H34.56a.46.46,0,0,1-.47-.46V30.41a.47.47,0,0,1,.47-.46H38a.47.47,0,0,1,.47.46v3.66A.46.46,0,0,1,38,34.53Zm-3-.92h2.52V30.88H35Z"/><path class="cls-2" d="M44.24,34.53H40.79a.46.46,0,0,1-.47-.46V30.41a.47.47,0,0,1,.47-.46h3.45a.47.47,0,0,1,.46.46v3.66A.46.46,0,0,1,44.24,34.53Zm-3-.92h2.52V30.88H41.25Z"/><path class="cls-2" d="M50.47,34.53H47a.46.46,0,0,1-.47-.46V30.41A.47.47,0,0,1,47,30h3.45a.47.47,0,0,1,.46.46v3.66A.46.46,0,0,1,50.47,34.53Zm-3-.92H50V30.88H47.48Z"/><path class="cls-2" d="M31.77,40.35H28.33a.47.47,0,0,1-.47-.47V36.23a.47.47,0,0,1,.47-.47h3.44a.47.47,0,0,1,.47.47v3.65A.47.47,0,0,1,31.77,40.35Zm-3-.93h2.52V36.69H28.79Z"/><path class="cls-2" d="M38,40.35H34.56a.47.47,0,0,1-.47-.47V36.23a.47.47,0,0,1,.47-.47H38a.47.47,0,0,1,.47.47v3.65A.47.47,0,0,1,38,40.35Zm-3-.93h2.52V36.69H35Z"/><path class="cls-2" d="M44.24,40.35H40.79a.47.47,0,0,1-.47-.47V36.23a.47.47,0,0,1,.47-.47h3.45a.47.47,0,0,1,.46.47v3.65A.47.47,0,0,1,44.24,40.35Zm-3-.93h2.52V36.69H41.25Z"/><path class="cls-2" d="M50.47,40.35H47a.47.47,0,0,1-.47-.47V36.23a.47.47,0,0,1,.47-.47h3.45a.47.47,0,0,1,.46.47v3.65A.47.47,0,0,1,50.47,40.35Zm-3-.93H50V36.69H47.48Z"/></g></g></svg>